Coordinates
version=1
nRows=16
nColumns=36
inDegrees=yes

Units are S.I. units (second, meters, Newtons, ...)
If the header above contains a line with 'inDegrees', this indicates whether rotational values are in degrees (yes) or radians (no).

endheader
time	pelvis_tilt	pelvis_list	pelvis_rotation	pelvis_tx	pelvis_ty	pelvis_tz	hip_flexion_r	hip_adduction_r	hip_rotation_r	knee_angle_r	knee_angle_r_beta	ankle_angle_r	subtalar_angle_r	mtp_angle_r	hip_flexion_l	hip_adduction_l	hip_rotation_l	knee_angle_l	knee_angle_l_beta	ankle_angle_l	subtalar_angle_l	mtp_angle_l	lumbar_extension	lumbar_bending	lumbar_rotation	arm_flex_r	arm_add_r	arm_rot_r	elbow_flex_r	pro_sup_r	arm_flex_l	arm_add_l	arm_rot_l	elbow_flex_l	pro_sup_l
      2.15000000	     -0.89017691	      1.22106136	      6.18602105	      1.03907889	      0.99011954	     -0.04093732	      3.63036394	    -10.19085644	    -21.94197565	      9.42754017	      0.16454162	      5.52357470	    -14.95708064	     -7.49999987	     -0.51604473	     -5.63816640	    -20.21612579	      4.48767364	      0.07832468	      7.61515444	     -6.33827146	     -7.49999987	     -7.39367934	     -0.71479147	     -0.75450012	     65.83018258	     11.08329996	     59.88044877	    113.08922188	     91.41087883	     55.50120397	      2.03705000	     63.07802361	    123.40284930	    104.26823505
      2.16666670	     -1.15030678	      1.24685683	      6.07973054	      1.04014489	      0.98521852	     -0.04096168	      4.33751177	    -10.41950773	    -22.04183409	     10.10790090	      0.17641615	      5.71127986	    -14.98820357	     -7.49999987	      0.09677092	     -5.74169392	    -20.33231892	      5.02666428	      0.08773184	      7.75017904	     -6.62696590	     -7.49999987	     -7.67500439	     -0.79995576	     -0.76646164	     65.98284845	     11.22795776	     59.81415629	    112.93499086	     91.00481773	     55.77129964	      1.90917825	     62.64548886	    123.17906800	    104.43713504
      2.18333330	     -1.33610152	      1.20804169	      6.00577218	      1.03973157	      0.98578908	     -0.04081484	      4.93368130	    -10.54457732	    -22.09686069	     10.71322874	      0.18698112	      5.97338880	    -15.13947693	     -7.49999987	      0.67168535	     -5.94001318	    -20.44890454	      5.62496675	      0.09817419	      7.92808834	     -6.88902921	     -7.49999987	     -8.25709193	     -0.82899677	     -0.82555655	     65.57637341	     10.65349000	     60.31691474	    112.94633428	     89.18152776	     55.68370162	      1.36009921	     62.44814866	    122.47073850	    102.11748410
      2.20000000	     -1.70328244	      1.23701242	      6.09462737	      1.03560095	      0.98017733	     -0.03832936	      5.94988356	    -10.90740065	    -22.52896880	     11.87571215	      0.20727028	      6.62697167	    -14.85258308	     -7.49999987	      1.83725318	     -6.14691694	    -20.01208961	      6.72830791	      0.11743113	      8.06793508	     -7.85412538	     -7.49999987	     -8.69040436	     -0.96428980	     -0.81907139	     65.33134470	     10.23346903	     60.24238912	    112.79077789	     92.24821046	     55.76215877	      0.96316013	     62.28546553	    121.52513667	    104.28623061
      2.21666670	     -2.06499905	      1.24980969	      6.13034078	      1.03521595	      0.97560927	     -0.03815752	      7.28029736	    -11.38182390	    -22.59202480	     13.59356982	      0.23725255	      7.12507651	    -15.10082822	     -7.49999987	      3.19248540	     -6.49653924	    -19.92553111	      8.24311789	      0.14386955	      8.80082159	     -8.31519215	     -7.49999987	     -9.40798290	     -1.07451850	     -0.74084927	     65.45611759	     10.16470955	     60.53971999	    113.02357126	     92.12654693	     55.92119694	      0.60272074	     62.15349151	    120.86854926	    104.04054029
      2.23333330	     -2.94192129	      1.23336340	      6.17659957	      1.03755514	      0.97301717	     -0.04384940	      9.38380529	    -12.08063227	    -22.70997386	     15.77491059	      0.27532413	      7.78649964	    -15.23534917	     -7.49999987	      5.27341364	     -6.84030198	    -19.54003034	     10.12739819	      0.17675644	      9.48859687	     -9.23716179	     -7.49999987	     -9.44775144	     -1.19210870	     -0.89830022	     64.75216989	      9.99598394	     61.22736863	    113.67918596	     92.43129516	     55.42295826	      0.24496514	     62.24129891	    120.40682594	    104.33816735
      2.25000000	     -3.62607507	      1.16598362	      6.35706948	      1.04330728	      0.96857339	     -0.04135479	     11.20370074	    -12.73051982	    -22.96194133	     18.06862177	      0.31535694	      8.85440708	    -15.12055416	     -7.49999987	      7.21265930	     -7.26442289	    -18.74557668	     12.22243997	      0.21332182	     10.17179822	    -10.44782026	     -7.49999987	     -9.64904617	     -1.14423546	     -0.79580644	     63.87362985	      9.68565680	     61.90448707	    113.93723334	     94.97751219	     54.53625203	      0.25648095	     62.63030144	    120.37666223	    106.05527921
      2.26666670	     -4.63436322	      1.21778144	      6.51871174	      1.03938949	      0.96233478	     -0.03882150	     13.73768594	    -13.68024262	    -23.00360815	     20.96738029	      0.36594982	     10.01200330	    -14.97174729	     -7.49999987	      9.79919231	     -7.64384651	    -18.05377551	     14.92219746	      0.26044148	     11.32602367	    -11.38871654	     -7.49999987	     -9.74897682	     -1.33271790	     -0.75652718	     62.99942718	      9.78596032	     62.89031175	    114.53027445	     95.16277217	     53.89753630	     -0.16230038	     63.43626582	    120.75823780	    105.92289106
      2.28333330	     -5.89252197	      1.22730937	      6.86693184	      1.03436686	      0.95790142	     -0.03668062	     16.83966420	    -14.77676024	    -23.06564377	     24.48875616	      0.42740942	     11.32899073	    -14.72579509	     -7.49999987	     13.22710922	     -8.10898783	    -16.97227573	     18.47416354	      0.32243498	     12.61224380	    -12.77094915	     -7.49999987	     -9.88912197	     -1.45781969	     -0.91415098	     62.17075913	      9.45501688	     63.74341802	    114.79952968	     97.60569719	     53.23827233	     -0.61720853	     64.23382693	    120.99585582	    107.22549005
      2.30000000	     -7.49181732	      1.29680147	      7.35198356	      1.02606638	      0.94439067	     -0.03784136	     21.12280707	    -16.36327653	    -22.70226737	     29.40222016	      0.51316555	     12.60856250	    -14.79669381	     -7.49999987	     17.78835578	     -8.56255381	    -15.86619444	     23.33929259	      0.40734750	     14.72670671	    -13.93742352	     -7.49999987	     -9.93371002	     -1.64207498	     -0.94127743	     62.30772951	      9.23601640	     64.20577704	    115.26424220	     98.86335269	     53.31420088	     -0.40009803	     64.95758638	    121.11900121	    107.42464089
      2.31666670	     -9.00169465	      1.26755387	      8.02413693	      1.01491595	      0.92663586	     -0.03223786	     25.77634203	    -17.97726730	    -22.01923544	     34.93692884	      0.60976444	     13.91909823	    -15.04858676	     -7.49999987	     22.94450669	     -9.22577043	    -14.81106709	     29.17821769	      0.50925597	     17.33009067	    -14.76566092	     -7.49999987	    -10.24277556	     -1.67666396	     -0.99952775	     63.20737140	      9.04988612	     64.16944952	    115.27613499	     94.63912144	     54.42765769	     -0.37182516	     65.19490030	    121.12180605	    101.93358962
      2.33333330	    -10.38556635	      0.92566296	      8.76415254	      1.02255340	      0.92230113	     -0.03095159	     29.91151772	    -19.18630730	    -21.83537363	     39.76397648	      0.69401231	     16.09455486	    -14.16510879	     -7.49999987	     27.68498749	    -10.02132601	    -13.76812044	     34.51389727	      0.60238115	     19.67500464	    -15.05137834	     -7.49999987	    -10.35614683	     -1.29057226	     -1.20252981	     62.82375138	      9.04094401	     64.33849653	    115.04845231	    100.96827132	     53.80866418	     -0.67600404	     65.32410226	    121.57185897	    107.20584358
      2.35000000	    -11.36424188	      0.48810463	      9.50592091	      1.01695886	      0.91383739	     -0.03498991	     33.40198274	    -20.17097167	    -21.64012835	     44.13605810	      0.77031953	     18.11823201	    -13.42840674	     -7.49999987	     31.80906762	    -10.81137466	    -12.90539096	     39.41493730	      0.68792043	     21.64949035	    -14.87617756	     -7.49999987	    -10.89012452	     -0.75265326	     -1.23268356	     62.36817114	      8.34769283	     64.80326554	    115.30992657	    101.07230930	     53.43064758	     -0.59892791	     65.80597452	    120.77807125	    107.47743171
      2.36666670	    -12.19939260	     -0.08817571	     10.28946459	      1.01269308	      0.90557019	     -0.03353808	     36.50896169	    -20.99239873	    -21.53161189	     48.22302026	      0.84165048	     20.20936228	    -12.58868473	     -7.49999987	     35.72507010	    -11.65814311	    -12.08636566	     43.94841958	      0.76704462	     23.36686602	    -14.41684824	     -7.49999987	    -11.81131590	     -0.17411208	     -1.09877707	     62.28804618	      7.50042470	     64.65232720	    115.51030137	    101.95285430	     53.51235845	     -0.28139019	     66.06003958	    120.04864951	    108.68985458
      2.38333330	    -13.09230112	     -0.70126389	     10.95873050	      1.01279612	      0.89550128	     -0.03489597	     39.55699868	    -21.68512815	    -21.28189515	     51.99840440	      0.90754336	     22.11651391	    -11.89636548	     -7.49999987	     39.55742064	    -12.43134594	    -11.31577293	     48.15213891	      0.84041337	     24.89399646	    -13.96512842	     -7.49999987	    -12.59679767	      0.55952749	     -1.14668819	     62.14657599	      6.72362595	     64.98573809	    115.86350452	    102.32818417	     53.20718736	     -0.43473673	     66.04383925	    118.93277284	    108.65039963
      2.40000000	    -13.56323692	     -1.02862631	     11.54985611	      1.00814902	      0.88444680	     -0.03846216	     42.08115630	    -22.54436372	    -20.78547457	     55.54533440	      0.96944897	     23.55253035	    -11.68228867	     -7.49999987	     42.67411631	    -12.84060759	    -10.64552213	     51.88505002	      0.90556496	     26.23020797	    -13.85909280	     -7.49999987	    -14.29633724	      1.12390601	     -1.28723393	     62.59331295	      5.98361285	     65.29859966	    116.20997387	    102.17801491	     53.46797460	     -0.22786428	     65.90672863	    118.55919218	    108.08485477
